<mxfile host="app.diagrams.net" modified="2022-11-18T02:38:49.570Z" agent="5.0 (Windows NT 10.0; Win64; x64) AppleWebKit/537.36 (KHTML, like Gecko) Chrome/107.0.0.0 Safari/537.36" etag="1qWnk-JWiOadicIPYvV8" version="20.5.3" type="github">
  <diagram id="qrxmRqM77duy11TJZLwF" name="Page-1">
    <mxGraphModel dx="2958" dy="1341" grid="1" gridSize="10" guides="1" tooltips="1" connect="1" arrows="0" fold="1" page="1" pageScale="1" pageWidth="850" pageHeight="1100" math="0" shadow="0">
      <root>
        <mxCell id="0" />
        <mxCell id="1" parent="0" />
        <mxCell id="xIz4t1A_rdcvLCpUZj0C-358" value="" style="rounded=0;whiteSpace=wrap;html=1;" parent="1" vertex="1">
          <mxGeometry y="10" width="840" height="320" as="geometry" />
        </mxCell>
        <mxCell id="xIz4t1A_rdcvLCpUZj0C-208" value="" style="shape=table;startSize=0;container=1;collapsible=0;childLayout=tableLayout;" parent="1" vertex="1">
          <mxGeometry x="20" y="90" width="580" height="190" as="geometry" />
        </mxCell>
        <mxCell id="xIz4t1A_rdcvLCpUZj0C-209" value="" style="shape=tableRow;horizontal=0;startSize=0;swimlaneHead=0;swimlaneBody=0;top=0;left=0;bottom=0;right=0;collapsible=0;dropTarget=0;fillColor=none;points=[[0,0.5],[1,0.5]];portConstraint=eastwest;" parent="xIz4t1A_rdcvLCpUZj0C-208" vertex="1">
          <mxGeometry width="580" height="49" as="geometry" />
        </mxCell>
        <mxCell id="xIz4t1A_rdcvLCpUZj0C-210" value="ID" style="shape=partialRectangle;html=1;whiteSpace=wrap;connectable=0;overflow=hidden;fillColor=none;top=0;left=0;bottom=0;right=0;pointerEvents=1;" parent="xIz4t1A_rdcvLCpUZj0C-209" vertex="1">
          <mxGeometry width="73" height="49" as="geometry">
            <mxRectangle width="73" height="49" as="alternateBounds" />
          </mxGeometry>
        </mxCell>
        <mxCell id="xIz4t1A_rdcvLCpUZj0C-211" value="期号" style="shape=partialRectangle;html=1;whiteSpace=wrap;connectable=0;overflow=hidden;fillColor=none;top=0;left=0;bottom=0;right=0;pointerEvents=1;" parent="xIz4t1A_rdcvLCpUZj0C-209" vertex="1">
          <mxGeometry x="73" width="72" height="49" as="geometry">
            <mxRectangle width="72" height="49" as="alternateBounds" />
          </mxGeometry>
        </mxCell>
        <mxCell id="xIz4t1A_rdcvLCpUZj0C-212" value="位置" style="shape=partialRectangle;html=1;whiteSpace=wrap;connectable=0;overflow=hidden;fillColor=none;top=0;left=0;bottom=0;right=0;pointerEvents=1;" parent="xIz4t1A_rdcvLCpUZj0C-209" vertex="1">
          <mxGeometry x="145" width="73" height="49" as="geometry">
            <mxRectangle width="73" height="49" as="alternateBounds" />
          </mxGeometry>
        </mxCell>
        <mxCell id="xIz4t1A_rdcvLCpUZj0C-213" value="角度" style="shape=partialRectangle;html=1;whiteSpace=wrap;connectable=0;overflow=hidden;fillColor=none;top=0;left=0;bottom=0;right=0;pointerEvents=1;" parent="xIz4t1A_rdcvLCpUZj0C-209" vertex="1">
          <mxGeometry x="218" width="72" height="49" as="geometry">
            <mxRectangle width="72" height="49" as="alternateBounds" />
          </mxGeometry>
        </mxCell>
        <mxCell id="xIz4t1A_rdcvLCpUZj0C-214" value="" style="shape=partialRectangle;html=1;whiteSpace=wrap;connectable=0;overflow=hidden;fillColor=none;top=0;left=0;bottom=0;right=0;pointerEvents=1;" parent="xIz4t1A_rdcvLCpUZj0C-209" vertex="1">
          <mxGeometry x="290" width="73" height="49" as="geometry">
            <mxRectangle width="73" height="49" as="alternateBounds" />
          </mxGeometry>
        </mxCell>
        <mxCell id="xIz4t1A_rdcvLCpUZj0C-215" value="平台" style="shape=partialRectangle;html=1;whiteSpace=wrap;connectable=0;overflow=hidden;fillColor=none;top=0;left=0;bottom=0;right=0;pointerEvents=1;" parent="xIz4t1A_rdcvLCpUZj0C-209" vertex="1">
          <mxGeometry x="363" width="72" height="49" as="geometry">
            <mxRectangle width="72" height="49" as="alternateBounds" />
          </mxGeometry>
        </mxCell>
        <mxCell id="xIz4t1A_rdcvLCpUZj0C-216" value="企业" style="shape=partialRectangle;html=1;whiteSpace=wrap;connectable=0;overflow=hidden;fillColor=none;top=0;left=0;bottom=0;right=0;pointerEvents=1;" parent="xIz4t1A_rdcvLCpUZj0C-209" vertex="1">
          <mxGeometry x="435" width="73" height="49" as="geometry">
            <mxRectangle width="73" height="49" as="alternateBounds" />
          </mxGeometry>
        </mxCell>
        <mxCell id="xIz4t1A_rdcvLCpUZj0C-217" value="标注" style="shape=partialRectangle;html=1;whiteSpace=wrap;connectable=0;overflow=hidden;fillColor=none;top=0;left=0;bottom=0;right=0;pointerEvents=1;" parent="xIz4t1A_rdcvLCpUZj0C-209" vertex="1">
          <mxGeometry x="508" width="72" height="49" as="geometry">
            <mxRectangle width="72" height="49" as="alternateBounds" />
          </mxGeometry>
        </mxCell>
        <mxCell id="xIz4t1A_rdcvLCpUZj0C-218" value="" style="shape=tableRow;horizontal=0;startSize=0;swimlaneHead=0;swimlaneBody=0;top=0;left=0;bottom=0;right=0;collapsible=0;dropTarget=0;fillColor=none;points=[[0,0.5],[1,0.5]];portConstraint=eastwest;" parent="xIz4t1A_rdcvLCpUZj0C-208" vertex="1">
          <mxGeometry y="49" width="580" height="46" as="geometry" />
        </mxCell>
        <mxCell id="xIz4t1A_rdcvLCpUZj0C-219" value="_d123123123" style="shape=partialRectangle;html=1;whiteSpace=wrap;connectable=0;overflow=hidden;fillColor=none;top=0;left=0;bottom=0;right=0;pointerEvents=1;" parent="xIz4t1A_rdcvLCpUZj0C-218" vertex="1">
          <mxGeometry width="73" height="46" as="geometry">
            <mxRectangle width="73" height="46" as="alternateBounds" />
          </mxGeometry>
        </mxCell>
        <mxCell id="xIz4t1A_rdcvLCpUZj0C-220" value="202111112" style="shape=partialRectangle;html=1;whiteSpace=wrap;connectable=0;overflow=hidden;fillColor=none;top=0;left=0;bottom=0;right=0;pointerEvents=1;" parent="xIz4t1A_rdcvLCpUZj0C-218" vertex="1">
          <mxGeometry x="73" width="72" height="46" as="geometry">
            <mxRectangle width="72" height="46" as="alternateBounds" />
          </mxGeometry>
        </mxCell>
        <mxCell id="xIz4t1A_rdcvLCpUZj0C-221" value="[[112,42],[113,33],[112.31,32],[113.11,33]]" style="shape=partialRectangle;html=1;whiteSpace=wrap;connectable=0;overflow=hidden;fillColor=none;top=0;left=0;bottom=0;right=0;pointerEvents=1;" parent="xIz4t1A_rdcvLCpUZj0C-218" vertex="1">
          <mxGeometry x="145" width="73" height="46" as="geometry">
            <mxRectangle width="73" height="46" as="alternateBounds" />
          </mxGeometry>
        </mxCell>
        <mxCell id="xIz4t1A_rdcvLCpUZj0C-222" value="7" style="shape=partialRectangle;html=1;whiteSpace=wrap;connectable=0;overflow=hidden;fillColor=none;top=0;left=0;bottom=0;right=0;pointerEvents=1;" parent="xIz4t1A_rdcvLCpUZj0C-218" vertex="1">
          <mxGeometry x="218" width="72" height="46" as="geometry">
            <mxRectangle width="72" height="46" as="alternateBounds" />
          </mxGeometry>
        </mxCell>
        <mxCell id="xIz4t1A_rdcvLCpUZj0C-223" value="" style="shape=partialRectangle;html=1;whiteSpace=wrap;connectable=0;overflow=hidden;fillColor=none;top=0;left=0;bottom=0;right=0;pointerEvents=1;" parent="xIz4t1A_rdcvLCpUZj0C-218" vertex="1">
          <mxGeometry x="290" width="73" height="46" as="geometry">
            <mxRectangle width="73" height="46" as="alternateBounds" />
          </mxGeometry>
        </mxCell>
        <mxCell id="xIz4t1A_rdcvLCpUZj0C-224" value="太保" style="shape=partialRectangle;html=1;whiteSpace=wrap;connectable=0;overflow=hidden;fillColor=none;top=0;left=0;bottom=0;right=0;pointerEvents=1;" parent="xIz4t1A_rdcvLCpUZj0C-218" vertex="1">
          <mxGeometry x="363" width="72" height="46" as="geometry">
            <mxRectangle width="72" height="46" as="alternateBounds" />
          </mxGeometry>
        </mxCell>
        <mxCell id="xIz4t1A_rdcvLCpUZj0C-225" value="xx公司、mm公司、aa公司" style="shape=partialRectangle;html=1;whiteSpace=wrap;connectable=0;overflow=hidden;fillColor=none;top=0;left=0;bottom=0;right=0;pointerEvents=1;" parent="xIz4t1A_rdcvLCpUZj0C-218" vertex="1">
          <mxGeometry x="435" width="73" height="46" as="geometry">
            <mxRectangle width="73" height="46" as="alternateBounds" />
          </mxGeometry>
        </mxCell>
        <mxCell id="xIz4t1A_rdcvLCpUZj0C-226" value="geojson1、geojson2、&lt;br&gt;geojson3、" style="shape=partialRectangle;html=1;whiteSpace=wrap;connectable=0;overflow=hidden;fillColor=none;top=0;left=0;bottom=0;right=0;pointerEvents=1;" parent="xIz4t1A_rdcvLCpUZj0C-218" vertex="1">
          <mxGeometry x="508" width="72" height="46" as="geometry">
            <mxRectangle width="72" height="46" as="alternateBounds" />
          </mxGeometry>
        </mxCell>
        <mxCell id="xIz4t1A_rdcvLCpUZj0C-227" value="" style="shape=tableRow;horizontal=0;startSize=0;swimlaneHead=0;swimlaneBody=0;top=0;left=0;bottom=0;right=0;collapsible=0;dropTarget=0;fillColor=none;points=[[0,0.5],[1,0.5]];portConstraint=eastwest;" parent="xIz4t1A_rdcvLCpUZj0C-208" vertex="1">
          <mxGeometry y="95" width="580" height="49" as="geometry" />
        </mxCell>
        <mxCell id="xIz4t1A_rdcvLCpUZj0C-228" value="_d123123123" style="shape=partialRectangle;html=1;whiteSpace=wrap;connectable=0;overflow=hidden;fillColor=none;top=0;left=0;bottom=0;right=0;pointerEvents=1;" parent="xIz4t1A_rdcvLCpUZj0C-227" vertex="1">
          <mxGeometry width="73" height="49" as="geometry">
            <mxRectangle width="73" height="49" as="alternateBounds" />
          </mxGeometry>
        </mxCell>
        <mxCell id="xIz4t1A_rdcvLCpUZj0C-229" value="202111112" style="shape=partialRectangle;html=1;whiteSpace=wrap;connectable=0;overflow=hidden;fillColor=none;top=0;left=0;bottom=0;right=0;pointerEvents=1;" parent="xIz4t1A_rdcvLCpUZj0C-227" vertex="1">
          <mxGeometry x="73" width="72" height="49" as="geometry">
            <mxRectangle width="72" height="49" as="alternateBounds" />
          </mxGeometry>
        </mxCell>
        <mxCell id="xIz4t1A_rdcvLCpUZj0C-230" value="[[112,42],[113,33],[112.31,32],[113,11,33]]" style="shape=partialRectangle;html=1;whiteSpace=wrap;connectable=0;overflow=hidden;fillColor=none;top=0;left=0;bottom=0;right=0;pointerEvents=1;" parent="xIz4t1A_rdcvLCpUZj0C-227" vertex="1">
          <mxGeometry x="145" width="73" height="49" as="geometry">
            <mxRectangle width="73" height="49" as="alternateBounds" />
          </mxGeometry>
        </mxCell>
        <mxCell id="xIz4t1A_rdcvLCpUZj0C-231" value="7" style="shape=partialRectangle;html=1;whiteSpace=wrap;connectable=0;overflow=hidden;fillColor=none;top=0;left=0;bottom=0;right=0;pointerEvents=1;" parent="xIz4t1A_rdcvLCpUZj0C-227" vertex="1">
          <mxGeometry x="218" width="72" height="49" as="geometry">
            <mxRectangle width="72" height="49" as="alternateBounds" />
          </mxGeometry>
        </mxCell>
        <mxCell id="xIz4t1A_rdcvLCpUZj0C-232" value="" style="shape=partialRectangle;html=1;whiteSpace=wrap;connectable=0;overflow=hidden;fillColor=none;top=0;left=0;bottom=0;right=0;pointerEvents=1;" parent="xIz4t1A_rdcvLCpUZj0C-227" vertex="1">
          <mxGeometry x="290" width="73" height="49" as="geometry">
            <mxRectangle width="73" height="49" as="alternateBounds" />
          </mxGeometry>
        </mxCell>
        <mxCell id="xIz4t1A_rdcvLCpUZj0C-233" value="港航科" style="shape=partialRectangle;html=1;whiteSpace=wrap;connectable=0;overflow=hidden;fillColor=none;top=0;left=0;bottom=0;right=0;pointerEvents=1;" parent="xIz4t1A_rdcvLCpUZj0C-227" vertex="1">
          <mxGeometry x="363" width="72" height="49" as="geometry">
            <mxRectangle width="72" height="49" as="alternateBounds" />
          </mxGeometry>
        </mxCell>
        <mxCell id="xIz4t1A_rdcvLCpUZj0C-234" value="xx公司、mm公司、aa公司" style="shape=partialRectangle;html=1;whiteSpace=wrap;connectable=0;overflow=hidden;fillColor=none;top=0;left=0;bottom=0;right=0;pointerEvents=1;" parent="xIz4t1A_rdcvLCpUZj0C-227" vertex="1">
          <mxGeometry x="435" width="73" height="49" as="geometry">
            <mxRectangle width="73" height="49" as="alternateBounds" />
          </mxGeometry>
        </mxCell>
        <mxCell id="xIz4t1A_rdcvLCpUZj0C-235" value="" style="shape=partialRectangle;html=1;whiteSpace=wrap;connectable=0;overflow=hidden;fillColor=none;top=0;left=0;bottom=0;right=0;pointerEvents=1;" parent="xIz4t1A_rdcvLCpUZj0C-227" vertex="1">
          <mxGeometry x="508" width="72" height="49" as="geometry">
            <mxRectangle width="72" height="49" as="alternateBounds" />
          </mxGeometry>
        </mxCell>
        <mxCell id="xIz4t1A_rdcvLCpUZj0C-236" value="" style="shape=tableRow;horizontal=0;startSize=0;swimlaneHead=0;swimlaneBody=0;top=0;left=0;bottom=0;right=0;collapsible=0;dropTarget=0;fillColor=none;points=[[0,0.5],[1,0.5]];portConstraint=eastwest;" parent="xIz4t1A_rdcvLCpUZj0C-208" vertex="1">
          <mxGeometry y="144" width="580" height="46" as="geometry" />
        </mxCell>
        <mxCell id="xIz4t1A_rdcvLCpUZj0C-237" value="_d123123123" style="shape=partialRectangle;html=1;whiteSpace=wrap;connectable=0;overflow=hidden;fillColor=none;top=0;left=0;bottom=0;right=0;pointerEvents=1;" parent="xIz4t1A_rdcvLCpUZj0C-236" vertex="1">
          <mxGeometry width="73" height="46" as="geometry">
            <mxRectangle width="73" height="46" as="alternateBounds" />
          </mxGeometry>
        </mxCell>
        <mxCell id="xIz4t1A_rdcvLCpUZj0C-238" value="202111112" style="shape=partialRectangle;html=1;whiteSpace=wrap;connectable=0;overflow=hidden;fillColor=none;top=0;left=0;bottom=0;right=0;pointerEvents=1;" parent="xIz4t1A_rdcvLCpUZj0C-236" vertex="1">
          <mxGeometry x="73" width="72" height="46" as="geometry">
            <mxRectangle width="72" height="46" as="alternateBounds" />
          </mxGeometry>
        </mxCell>
        <mxCell id="xIz4t1A_rdcvLCpUZj0C-239" value="[[112,42],[113,33],[112.31,32],[113,11,33]]" style="shape=partialRectangle;html=1;whiteSpace=wrap;connectable=0;overflow=hidden;fillColor=none;top=0;left=0;bottom=0;right=0;pointerEvents=1;" parent="xIz4t1A_rdcvLCpUZj0C-236" vertex="1">
          <mxGeometry x="145" width="73" height="46" as="geometry">
            <mxRectangle width="73" height="46" as="alternateBounds" />
          </mxGeometry>
        </mxCell>
        <mxCell id="xIz4t1A_rdcvLCpUZj0C-240" value="5" style="shape=partialRectangle;html=1;whiteSpace=wrap;connectable=0;overflow=hidden;fillColor=none;top=0;left=0;bottom=0;right=0;pointerEvents=1;" parent="xIz4t1A_rdcvLCpUZj0C-236" vertex="1">
          <mxGeometry x="218" width="72" height="46" as="geometry">
            <mxRectangle width="72" height="46" as="alternateBounds" />
          </mxGeometry>
        </mxCell>
        <mxCell id="xIz4t1A_rdcvLCpUZj0C-241" value="" style="shape=partialRectangle;html=1;whiteSpace=wrap;connectable=0;overflow=hidden;fillColor=none;top=0;left=0;bottom=0;right=0;pointerEvents=1;" parent="xIz4t1A_rdcvLCpUZj0C-236" vertex="1">
          <mxGeometry x="290" width="73" height="46" as="geometry">
            <mxRectangle width="73" height="46" as="alternateBounds" />
          </mxGeometry>
        </mxCell>
        <mxCell id="xIz4t1A_rdcvLCpUZj0C-242" value="建行" style="shape=partialRectangle;html=1;whiteSpace=wrap;connectable=0;overflow=hidden;fillColor=none;top=0;left=0;bottom=0;right=0;pointerEvents=1;" parent="xIz4t1A_rdcvLCpUZj0C-236" vertex="1">
          <mxGeometry x="363" width="72" height="46" as="geometry">
            <mxRectangle width="72" height="46" as="alternateBounds" />
          </mxGeometry>
        </mxCell>
        <mxCell id="xIz4t1A_rdcvLCpUZj0C-243" value="xx公司、mm公司、aa公司" style="shape=partialRectangle;html=1;whiteSpace=wrap;connectable=0;overflow=hidden;fillColor=none;top=0;left=0;bottom=0;right=0;pointerEvents=1;" parent="xIz4t1A_rdcvLCpUZj0C-236" vertex="1">
          <mxGeometry x="435" width="73" height="46" as="geometry">
            <mxRectangle width="73" height="46" as="alternateBounds" />
          </mxGeometry>
        </mxCell>
        <mxCell id="xIz4t1A_rdcvLCpUZj0C-244" value="" style="shape=partialRectangle;html=1;whiteSpace=wrap;connectable=0;overflow=hidden;fillColor=none;top=0;left=0;bottom=0;right=0;pointerEvents=1;" parent="xIz4t1A_rdcvLCpUZj0C-236" vertex="1">
          <mxGeometry x="508" width="72" height="46" as="geometry">
            <mxRectangle width="72" height="46" as="alternateBounds" />
          </mxGeometry>
        </mxCell>
        <mxCell id="xIz4t1A_rdcvLCpUZj0C-246" value="" style="shape=partialRectangle;html=1;whiteSpace=wrap;connectable=0;overflow=hidden;fillColor=none;top=0;left=0;bottom=0;right=0;pointerEvents=1;" parent="1" vertex="1">
          <mxGeometry x="220" y="460" width="88" height="70" as="geometry">
            <mxRectangle width="88" height="70" as="alternateBounds" />
          </mxGeometry>
        </mxCell>
        <mxCell id="xIz4t1A_rdcvLCpUZj0C-323" value="操作" style="shape=ext;double=1;rounded=0;whiteSpace=wrap;html=1;" parent="1" vertex="1">
          <mxGeometry x="630" y="90" width="140" height="40" as="geometry" />
        </mxCell>
        <mxCell id="xIz4t1A_rdcvLCpUZj0C-341" value="" style="shape=table;startSize=0;container=1;collapsible=0;childLayout=tableLayout;" parent="1" vertex="1">
          <mxGeometry x="630" y="140" width="150" height="140" as="geometry" />
        </mxCell>
        <mxCell id="xIz4t1A_rdcvLCpUZj0C-342" value="" style="shape=tableRow;horizontal=0;startSize=0;swimlaneHead=0;swimlaneBody=0;top=0;left=0;bottom=0;right=0;collapsible=0;dropTarget=0;fillColor=none;points=[[0,0.5],[1,0.5]];portConstraint=eastwest;" parent="xIz4t1A_rdcvLCpUZj0C-341" vertex="1">
          <mxGeometry width="150" height="47" as="geometry" />
        </mxCell>
        <mxCell id="xIz4t1A_rdcvLCpUZj0C-343" value="详情" style="shape=partialRectangle;html=1;whiteSpace=wrap;connectable=0;overflow=hidden;fillColor=none;top=0;left=0;bottom=0;right=0;pointerEvents=1;" parent="xIz4t1A_rdcvLCpUZj0C-342" vertex="1">
          <mxGeometry width="50" height="47" as="geometry">
            <mxRectangle width="50" height="47" as="alternateBounds" />
          </mxGeometry>
        </mxCell>
        <mxCell id="xIz4t1A_rdcvLCpUZj0C-344" value="关联" style="shape=partialRectangle;html=1;whiteSpace=wrap;connectable=0;overflow=hidden;fillColor=none;top=0;left=0;bottom=0;right=0;pointerEvents=1;" parent="xIz4t1A_rdcvLCpUZj0C-342" vertex="1">
          <mxGeometry x="50" width="50" height="47" as="geometry">
            <mxRectangle width="50" height="47" as="alternateBounds" />
          </mxGeometry>
        </mxCell>
        <mxCell id="xIz4t1A_rdcvLCpUZj0C-345" value="标注" style="shape=partialRectangle;html=1;whiteSpace=wrap;connectable=0;overflow=hidden;fillColor=none;top=0;left=0;bottom=0;right=0;pointerEvents=1;" parent="xIz4t1A_rdcvLCpUZj0C-342" vertex="1">
          <mxGeometry x="100" width="50" height="47" as="geometry">
            <mxRectangle width="50" height="47" as="alternateBounds" />
          </mxGeometry>
        </mxCell>
        <mxCell id="xIz4t1A_rdcvLCpUZj0C-346" value="" style="shape=tableRow;horizontal=0;startSize=0;swimlaneHead=0;swimlaneBody=0;top=0;left=0;bottom=0;right=0;collapsible=0;dropTarget=0;fillColor=none;points=[[0,0.5],[1,0.5]];portConstraint=eastwest;" parent="xIz4t1A_rdcvLCpUZj0C-341" vertex="1">
          <mxGeometry y="47" width="150" height="46" as="geometry" />
        </mxCell>
        <mxCell id="xIz4t1A_rdcvLCpUZj0C-347" value="" style="shape=partialRectangle;html=1;whiteSpace=wrap;connectable=0;overflow=hidden;fillColor=none;top=0;left=0;bottom=0;right=0;pointerEvents=1;" parent="xIz4t1A_rdcvLCpUZj0C-346" vertex="1">
          <mxGeometry width="50" height="46" as="geometry">
            <mxRectangle width="50" height="46" as="alternateBounds" />
          </mxGeometry>
        </mxCell>
        <mxCell id="xIz4t1A_rdcvLCpUZj0C-348" value="" style="shape=partialRectangle;html=1;whiteSpace=wrap;connectable=0;overflow=hidden;fillColor=none;top=0;left=0;bottom=0;right=0;pointerEvents=1;" parent="xIz4t1A_rdcvLCpUZj0C-346" vertex="1">
          <mxGeometry x="50" width="50" height="46" as="geometry">
            <mxRectangle width="50" height="46" as="alternateBounds" />
          </mxGeometry>
        </mxCell>
        <mxCell id="xIz4t1A_rdcvLCpUZj0C-349" value="" style="shape=partialRectangle;html=1;whiteSpace=wrap;connectable=0;overflow=hidden;fillColor=none;top=0;left=0;bottom=0;right=0;pointerEvents=1;" parent="xIz4t1A_rdcvLCpUZj0C-346" vertex="1">
          <mxGeometry x="100" width="50" height="46" as="geometry">
            <mxRectangle width="50" height="46" as="alternateBounds" />
          </mxGeometry>
        </mxCell>
        <mxCell id="xIz4t1A_rdcvLCpUZj0C-350" value="" style="shape=tableRow;horizontal=0;startSize=0;swimlaneHead=0;swimlaneBody=0;top=0;left=0;bottom=0;right=0;collapsible=0;dropTarget=0;fillColor=none;points=[[0,0.5],[1,0.5]];portConstraint=eastwest;" parent="xIz4t1A_rdcvLCpUZj0C-341" vertex="1">
          <mxGeometry y="93" width="150" height="47" as="geometry" />
        </mxCell>
        <mxCell id="xIz4t1A_rdcvLCpUZj0C-351" value="" style="shape=partialRectangle;html=1;whiteSpace=wrap;connectable=0;overflow=hidden;fillColor=none;top=0;left=0;bottom=0;right=0;pointerEvents=1;" parent="xIz4t1A_rdcvLCpUZj0C-350" vertex="1">
          <mxGeometry width="50" height="47" as="geometry">
            <mxRectangle width="50" height="47" as="alternateBounds" />
          </mxGeometry>
        </mxCell>
        <mxCell id="xIz4t1A_rdcvLCpUZj0C-352" value="" style="shape=partialRectangle;html=1;whiteSpace=wrap;connectable=0;overflow=hidden;fillColor=none;top=0;left=0;bottom=0;right=0;pointerEvents=1;" parent="xIz4t1A_rdcvLCpUZj0C-350" vertex="1">
          <mxGeometry x="50" width="50" height="47" as="geometry">
            <mxRectangle width="50" height="47" as="alternateBounds" />
          </mxGeometry>
        </mxCell>
        <mxCell id="xIz4t1A_rdcvLCpUZj0C-353" value="" style="shape=partialRectangle;html=1;whiteSpace=wrap;connectable=0;overflow=hidden;fillColor=none;top=0;left=0;bottom=0;right=0;pointerEvents=1;" parent="xIz4t1A_rdcvLCpUZj0C-350" vertex="1">
          <mxGeometry x="100" width="50" height="47" as="geometry">
            <mxRectangle width="50" height="47" as="alternateBounds" />
          </mxGeometry>
        </mxCell>
        <mxCell id="xIz4t1A_rdcvLCpUZj0C-359" value="Text" style="text;html=1;strokeColor=none;fillColor=none;align=center;verticalAlign=middle;whiteSpace=wrap;rounded=0;" parent="1" vertex="1">
          <mxGeometry x="470" y="270" width="60" height="30" as="geometry" />
        </mxCell>
        <mxCell id="xIz4t1A_rdcvLCpUZj0C-360" value="影像管理页面" style="text;html=1;strokeColor=none;fillColor=none;align=center;verticalAlign=middle;whiteSpace=wrap;rounded=0;" parent="1" vertex="1">
          <mxGeometry x="320" y="30" width="130" height="30" as="geometry" />
        </mxCell>
        <mxCell id="xIz4t1A_rdcvLCpUZj0C-361" value="1" style="rounded=1;whiteSpace=wrap;html=1;" parent="1" vertex="1">
          <mxGeometry x="140" y="300" width="50" height="20" as="geometry" />
        </mxCell>
        <mxCell id="xIz4t1A_rdcvLCpUZj0C-362" value="2" style="rounded=1;whiteSpace=wrap;html=1;" parent="1" vertex="1">
          <mxGeometry x="200" y="300" width="50" height="20" as="geometry" />
        </mxCell>
        <mxCell id="xIz4t1A_rdcvLCpUZj0C-363" value="3" style="rounded=1;whiteSpace=wrap;html=1;" parent="1" vertex="1">
          <mxGeometry x="258" y="300" width="50" height="20" as="geometry" />
        </mxCell>
        <mxCell id="xIz4t1A_rdcvLCpUZj0C-364" value="下一页" style="rounded=0;whiteSpace=wrap;html=1;" parent="1" vertex="1">
          <mxGeometry x="320" y="297.5" width="65" height="25" as="geometry" />
        </mxCell>
        <mxCell id="xIz4t1A_rdcvLCpUZj0C-365" value="上一页" style="rounded=0;whiteSpace=wrap;html=1;" parent="1" vertex="1">
          <mxGeometry x="70" y="297.5" width="65" height="25" as="geometry" />
        </mxCell>
        <mxCell id="xIz4t1A_rdcvLCpUZj0C-368" value="" style="endArrow=classic;html=1;rounded=0;" parent="1" source="xIz4t1A_rdcvLCpUZj0C-342" target="xIz4t1A_rdcvLCpUZj0C-369" edge="1">
          <mxGeometry width="50" height="50" relative="1" as="geometry">
            <mxPoint x="480" y="370" as="sourcePoint" />
            <mxPoint x="100" y="390" as="targetPoint" />
            <Array as="points">
              <mxPoint x="630" y="180" />
            </Array>
          </mxGeometry>
        </mxCell>
        <mxCell id="xIz4t1A_rdcvLCpUZj0C-369" value="" style="rounded=0;whiteSpace=wrap;html=1;" parent="1" vertex="1">
          <mxGeometry x="50" y="360" width="620" height="310" as="geometry" />
        </mxCell>
        <mxCell id="xIz4t1A_rdcvLCpUZj0C-371" value="影像详情数据" style="text;html=1;strokeColor=none;fillColor=none;align=center;verticalAlign=middle;whiteSpace=wrap;rounded=0;" parent="1" vertex="1">
          <mxGeometry x="270" y="380" width="120" height="30" as="geometry" />
        </mxCell>
        <mxCell id="xIz4t1A_rdcvLCpUZj0C-372" value="期号" style="rounded=0;whiteSpace=wrap;html=1;" parent="1" vertex="1">
          <mxGeometry x="105" y="490" width="70" height="30" as="geometry" />
        </mxCell>
        <mxCell id="xIz4t1A_rdcvLCpUZj0C-373" value="202123123" style="rounded=1;whiteSpace=wrap;html=1;" parent="1" vertex="1">
          <mxGeometry x="220" y="490" width="120" height="30" as="geometry" />
        </mxCell>
        <mxCell id="xIz4t1A_rdcvLCpUZj0C-374" value="id" style="rounded=0;whiteSpace=wrap;html=1;" parent="1" vertex="1">
          <mxGeometry x="107.5" y="410" width="75" height="30" as="geometry" />
        </mxCell>
        <mxCell id="xIz4t1A_rdcvLCpUZj0C-375" value="asdfasdfasdf" style="text;html=1;strokeColor=none;fillColor=none;align=center;verticalAlign=middle;whiteSpace=wrap;rounded=0;" parent="1" vertex="1">
          <mxGeometry x="220" y="410" width="60" height="30" as="geometry" />
        </mxCell>
        <mxCell id="xIz4t1A_rdcvLCpUZj0C-376" value="位置" style="rounded=0;whiteSpace=wrap;html=1;" parent="1" vertex="1">
          <mxGeometry x="110" y="540" width="60" height="30" as="geometry" />
        </mxCell>
        <mxCell id="xIz4t1A_rdcvLCpUZj0C-377" value="[[112,42],[113,33],[112.31,32],[113,11,33]]" style="rounded=1;whiteSpace=wrap;html=1;" parent="1" vertex="1">
          <mxGeometry x="210" y="540" width="250" height="30" as="geometry" />
        </mxCell>
        <mxCell id="xIz4t1A_rdcvLCpUZj0C-379" value="" style="ellipse;whiteSpace=wrap;html=1;aspect=fixed;" parent="1" vertex="1">
          <mxGeometry x="278" y="600" width="10" height="10" as="geometry" />
        </mxCell>
        <mxCell id="xIz4t1A_rdcvLCpUZj0C-380" value="" style="ellipse;whiteSpace=wrap;html=1;aspect=fixed;" parent="1" vertex="1">
          <mxGeometry x="278" y="580" width="10" height="10" as="geometry" />
        </mxCell>
        <mxCell id="xIz4t1A_rdcvLCpUZj0C-381" value="" style="ellipse;whiteSpace=wrap;html=1;aspect=fixed;" parent="1" vertex="1">
          <mxGeometry x="278" y="620" width="10" height="10" as="geometry" />
        </mxCell>
        <mxCell id="xIz4t1A_rdcvLCpUZj0C-382" value="" style="ellipse;whiteSpace=wrap;html=1;aspect=fixed;" parent="1" vertex="1">
          <mxGeometry x="280" y="640" width="10" height="10" as="geometry" />
        </mxCell>
        <mxCell id="xIz4t1A_rdcvLCpUZj0C-385" value="" style="endArrow=classic;html=1;rounded=0;" parent="1" source="xIz4t1A_rdcvLCpUZj0C-342" target="xIz4t1A_rdcvLCpUZj0C-386" edge="1">
          <mxGeometry width="50" height="50" relative="1" as="geometry">
            <mxPoint x="770" y="470" as="sourcePoint" />
            <mxPoint x="920" y="420" as="targetPoint" />
          </mxGeometry>
        </mxCell>
        <mxCell id="xIz4t1A_rdcvLCpUZj0C-386" value="" style="rounded=0;whiteSpace=wrap;html=1;" parent="1" vertex="1">
          <mxGeometry x="820" y="380" width="640" height="500" as="geometry" />
        </mxCell>
        <mxCell id="xIz4t1A_rdcvLCpUZj0C-387" value="上传" style="rounded=0;whiteSpace=wrap;html=1;" parent="1" vertex="1">
          <mxGeometry x="20" y="50" width="60" height="30" as="geometry" />
        </mxCell>
        <mxCell id="xIz4t1A_rdcvLCpUZj0C-388" value="删除" style="rounded=1;whiteSpace=wrap;html=1;" parent="1" vertex="1">
          <mxGeometry x="90" y="50" width="62" height="30" as="geometry" />
        </mxCell>
        <mxCell id="xIz4t1A_rdcvLCpUZj0C-389" value="此处可以修改" style="shape=ext;double=1;rounded=0;whiteSpace=wrap;html=1;" parent="1" vertex="1">
          <mxGeometry x="500" y="420" width="120" height="80" as="geometry" />
        </mxCell>
        <mxCell id="xIz4t1A_rdcvLCpUZj0C-390" value="保存" style="rounded=0;whiteSpace=wrap;html=1;" parent="1" vertex="1">
          <mxGeometry x="570" y="625" width="70" height="25" as="geometry" />
        </mxCell>
        <mxCell id="xIz4t1A_rdcvLCpUZj0C-391" value="取消" style="rounded=1;whiteSpace=wrap;html=1;" parent="1" vertex="1">
          <mxGeometry x="490" y="621.5" width="60" height="32" as="geometry" />
        </mxCell>
        <mxCell id="xIz4t1A_rdcvLCpUZj0C-392" value="平台" style="rounded=0;whiteSpace=wrap;html=1;" parent="1" vertex="1">
          <mxGeometry x="860" y="440" width="80" height="30" as="geometry" />
        </mxCell>
        <mxCell id="xIz4t1A_rdcvLCpUZj0C-393" value="下拉列表选平台" style="shape=ext;double=1;rounded=0;whiteSpace=wrap;html=1;" parent="1" vertex="1">
          <mxGeometry x="980" y="430" width="120" height="90" as="geometry" />
        </mxCell>
        <mxCell id="xIz4t1A_rdcvLCpUZj0C-394" value="企业" style="rounded=0;whiteSpace=wrap;html=1;" parent="1" vertex="1">
          <mxGeometry x="860" y="550" width="80" height="30" as="geometry" />
        </mxCell>
        <mxCell id="xIz4t1A_rdcvLCpUZj0C-395" value="下拉列表选企业" style="shape=ext;double=1;rounded=0;whiteSpace=wrap;html=1;" parent="1" vertex="1">
          <mxGeometry x="980" y="550" width="120" height="90" as="geometry" />
        </mxCell>
        <mxCell id="xIz4t1A_rdcvLCpUZj0C-396" value="子影像关联" style="whiteSpace=wrap;html=1;align=center;" parent="1" vertex="1">
          <mxGeometry x="860" y="710" width="90" height="40" as="geometry" />
        </mxCell>
        <mxCell id="xIz4t1A_rdcvLCpUZj0C-397" value="" style="endArrow=classic;html=1;rounded=0;exitX=0;exitY=0.75;exitDx=0;exitDy=0;" parent="1" source="xIz4t1A_rdcvLCpUZj0C-465" edge="1">
          <mxGeometry width="50" height="50" relative="1" as="geometry">
            <mxPoint x="720" y="780" as="sourcePoint" />
            <mxPoint x="730" y="819.5348837209303" as="targetPoint" />
          </mxGeometry>
        </mxCell>
        <mxCell id="xIz4t1A_rdcvLCpUZj0C-399" value="" style="rounded=0;whiteSpace=wrap;html=1;" parent="1" vertex="1">
          <mxGeometry x="70" y="810" width="660" height="470" as="geometry" />
        </mxCell>
        <mxCell id="xIz4t1A_rdcvLCpUZj0C-401" value="影像关联" style="text;html=1;strokeColor=none;fillColor=none;align=center;verticalAlign=middle;whiteSpace=wrap;rounded=0;" parent="1" vertex="1">
          <mxGeometry x="355" y="840" width="60" height="30" as="geometry" />
        </mxCell>
        <mxCell id="xIz4t1A_rdcvLCpUZj0C-402" value="" style="whiteSpace=wrap;html=1;aspect=fixed;" parent="1" vertex="1">
          <mxGeometry x="125" y="930" width="80" height="80" as="geometry" />
        </mxCell>
        <mxCell id="xIz4t1A_rdcvLCpUZj0C-403" value="" style="whiteSpace=wrap;html=1;aspect=fixed;" parent="1" vertex="1">
          <mxGeometry x="240" y="920" width="80" height="80" as="geometry" />
        </mxCell>
        <mxCell id="xIz4t1A_rdcvLCpUZj0C-404" value="" style="whiteSpace=wrap;html=1;aspect=fixed;" parent="1" vertex="1">
          <mxGeometry x="365" y="920" width="80" height="80" as="geometry" />
        </mxCell>
        <mxCell id="xIz4t1A_rdcvLCpUZj0C-405" value="" style="whiteSpace=wrap;html=1;aspect=fixed;" parent="1" vertex="1">
          <mxGeometry x="120" y="1030" width="80" height="80" as="geometry" />
        </mxCell>
        <mxCell id="xIz4t1A_rdcvLCpUZj0C-406" value="" style="whiteSpace=wrap;html=1;aspect=fixed;" parent="1" vertex="1">
          <mxGeometry x="258" y="1030" width="80" height="80" as="geometry" />
        </mxCell>
        <mxCell id="xIz4t1A_rdcvLCpUZj0C-407" value="" style="whiteSpace=wrap;html=1;aspect=fixed;" parent="1" vertex="1">
          <mxGeometry x="365" y="1030" width="80" height="80" as="geometry" />
        </mxCell>
        <mxCell id="xIz4t1A_rdcvLCpUZj0C-408" value="搜索影像" style="rounded=0;whiteSpace=wrap;html=1;" parent="1" vertex="1">
          <mxGeometry x="125" y="880" width="485" height="30" as="geometry" />
        </mxCell>
        <mxCell id="xIz4t1A_rdcvLCpUZj0C-409" value="确定" style="rounded=0;whiteSpace=wrap;html=1;" parent="1" vertex="1">
          <mxGeometry x="570" y="1200" width="110" height="40" as="geometry" />
        </mxCell>
        <mxCell id="xIz4t1A_rdcvLCpUZj0C-410" value="名称" style="rounded=1;whiteSpace=wrap;html=1;arcSize=50;" parent="1" vertex="1">
          <mxGeometry x="108" y="450" width="62" height="30" as="geometry" />
        </mxCell>
        <mxCell id="xIz4t1A_rdcvLCpUZj0C-412" value="xxx发电站" style="rounded=0;whiteSpace=wrap;html=1;" parent="1" vertex="1">
          <mxGeometry x="204" y="450" width="156" height="30" as="geometry" />
        </mxCell>
        <mxCell id="xIz4t1A_rdcvLCpUZj0C-413" value="xxx发电站" style="rounded=0;whiteSpace=wrap;html=1;" parent="1" vertex="1">
          <mxGeometry x="970" y="710" width="80" height="35" as="geometry" />
        </mxCell>
        <mxCell id="xIz4t1A_rdcvLCpUZj0C-414" value="父影像关联" style="whiteSpace=wrap;html=1;align=center;" parent="1" vertex="1">
          <mxGeometry x="860" y="780" width="90" height="40" as="geometry" />
        </mxCell>
        <mxCell id="xIz4t1A_rdcvLCpUZj0C-415" value="xxx发电站" style="rounded=0;whiteSpace=wrap;html=1;" parent="1" vertex="1">
          <mxGeometry x="980" y="785" width="80" height="35" as="geometry" />
        </mxCell>
        <mxCell id="xIz4t1A_rdcvLCpUZj0C-416" value="xxx发电站" style="rounded=0;whiteSpace=wrap;html=1;" parent="1" vertex="1">
          <mxGeometry x="1060" y="712.5" width="80" height="35" as="geometry" />
        </mxCell>
        <mxCell id="xIz4t1A_rdcvLCpUZj0C-417" value="xxx发电站" style="rounded=0;whiteSpace=wrap;html=1;" parent="1" vertex="1">
          <mxGeometry x="1150" y="712.5" width="80" height="35" as="geometry" />
        </mxCell>
        <mxCell id="xIz4t1A_rdcvLCpUZj0C-418" value="查看" style="rounded=0;whiteSpace=wrap;html=1;" parent="1" vertex="1">
          <mxGeometry x="1315" y="712.5" width="75" height="27" as="geometry" />
        </mxCell>
        <mxCell id="xIz4t1A_rdcvLCpUZj0C-419" value="查看" style="rounded=0;whiteSpace=wrap;html=1;" parent="1" vertex="1">
          <mxGeometry x="1275" y="785" width="75" height="27" as="geometry" />
        </mxCell>
        <mxCell id="xIz4t1A_rdcvLCpUZj0C-421" value="xxx发电站" style="rounded=0;whiteSpace=wrap;html=1;" parent="1" vertex="1">
          <mxGeometry x="1080" y="785" width="80" height="35" as="geometry" />
        </mxCell>
        <mxCell id="xIz4t1A_rdcvLCpUZj0C-422" value="" style="whiteSpace=wrap;html=1;aspect=fixed;" parent="1" vertex="1">
          <mxGeometry x="870" y="990" width="560" height="560" as="geometry" />
        </mxCell>
        <mxCell id="xIz4t1A_rdcvLCpUZj0C-423" value="" style="endArrow=classic;html=1;rounded=0;" parent="1" target="xIz4t1A_rdcvLCpUZj0C-422" edge="1">
          <mxGeometry width="50" height="50" relative="1" as="geometry">
            <mxPoint x="1320" y="720" as="sourcePoint" />
            <mxPoint x="1370" y="670" as="targetPoint" />
          </mxGeometry>
        </mxCell>
        <mxCell id="xIz4t1A_rdcvLCpUZj0C-424" value="子影响如下" style="text;html=1;strokeColor=none;fillColor=none;align=center;verticalAlign=middle;whiteSpace=wrap;rounded=0;" parent="1" vertex="1">
          <mxGeometry x="1040" y="1010" width="170" height="30" as="geometry" />
        </mxCell>
        <mxCell id="xIz4t1A_rdcvLCpUZj0C-425" value="" style="whiteSpace=wrap;html=1;aspect=fixed;" parent="1" vertex="1">
          <mxGeometry x="900" y="1100" width="80" height="80" as="geometry" />
        </mxCell>
        <mxCell id="xIz4t1A_rdcvLCpUZj0C-426" value="" style="whiteSpace=wrap;html=1;aspect=fixed;" parent="1" vertex="1">
          <mxGeometry x="1070" y="1100" width="80" height="80" as="geometry" />
        </mxCell>
        <mxCell id="xIz4t1A_rdcvLCpUZj0C-427" value="" style="whiteSpace=wrap;html=1;aspect=fixed;" parent="1" vertex="1">
          <mxGeometry x="1230" y="1100" width="85" height="85" as="geometry" />
        </mxCell>
        <mxCell id="xIz4t1A_rdcvLCpUZj0C-429" value="" style="whiteSpace=wrap;html=1;aspect=fixed;" parent="1" vertex="1">
          <mxGeometry x="120" y="1320" width="500" height="500" as="geometry" />
        </mxCell>
        <mxCell id="xIz4t1A_rdcvLCpUZj0C-430" value="" style="whiteSpace=wrap;html=1;aspect=fixed;" parent="1" vertex="1">
          <mxGeometry x="150" y="1430" width="80" height="80" as="geometry" />
        </mxCell>
        <mxCell id="xIz4t1A_rdcvLCpUZj0C-431" value="" style="whiteSpace=wrap;html=1;aspect=fixed;" parent="1" vertex="1">
          <mxGeometry x="335" y="1420" width="80" height="80" as="geometry" />
        </mxCell>
        <mxCell id="xIz4t1A_rdcvLCpUZj0C-432" value="" style="whiteSpace=wrap;html=1;aspect=fixed;" parent="1" vertex="1">
          <mxGeometry x="500" y="1420" width="80" height="80" as="geometry" />
        </mxCell>
        <mxCell id="xIz4t1A_rdcvLCpUZj0C-433" value="父影像如下" style="text;html=1;strokeColor=none;fillColor=none;align=center;verticalAlign=middle;whiteSpace=wrap;rounded=0;" parent="1" vertex="1">
          <mxGeometry x="270" y="1340" width="110" height="30" as="geometry" />
        </mxCell>
        <mxCell id="xIz4t1A_rdcvLCpUZj0C-434" value="" style="endArrow=classic;html=1;rounded=0;exitX=1;exitY=0.5;exitDx=0;exitDy=0;" parent="1" source="xIz4t1A_rdcvLCpUZj0C-342" target="xIz4t1A_rdcvLCpUZj0C-435" edge="1">
          <mxGeometry width="50" height="50" relative="1" as="geometry">
            <mxPoint x="940" y="230" as="sourcePoint" />
            <mxPoint x="1760" y="330" as="targetPoint" />
          </mxGeometry>
        </mxCell>
        <mxCell id="xIz4t1A_rdcvLCpUZj0C-435" value="" style="whiteSpace=wrap;html=1;aspect=fixed;" parent="1" vertex="1">
          <mxGeometry x="1720" y="290" width="850" height="850" as="geometry" />
        </mxCell>
        <mxCell id="xIz4t1A_rdcvLCpUZj0C-436" value="地图标注区域" style="rounded=0;whiteSpace=wrap;html=1;" parent="1" vertex="1">
          <mxGeometry x="1780" y="475" width="750" height="565" as="geometry" />
        </mxCell>
        <mxCell id="xIz4t1A_rdcvLCpUZj0C-437" value="保存" style="rounded=0;whiteSpace=wrap;html=1;" parent="1" vertex="1">
          <mxGeometry x="1950" y="1070" width="120" height="50" as="geometry" />
        </mxCell>
        <mxCell id="xIz4t1A_rdcvLCpUZj0C-438" value="标注1" style="rounded=0;whiteSpace=wrap;html=1;" parent="1" vertex="1">
          <mxGeometry x="1780" y="365" width="120" height="60" as="geometry" />
        </mxCell>
        <mxCell id="xIz4t1A_rdcvLCpUZj0C-439" value="标注2" style="rounded=0;whiteSpace=wrap;html=1;" parent="1" vertex="1">
          <mxGeometry x="1900" y="365" width="120" height="60" as="geometry" />
        </mxCell>
        <mxCell id="xIz4t1A_rdcvLCpUZj0C-440" value="标注3" style="rounded=0;whiteSpace=wrap;html=1;" parent="1" vertex="1">
          <mxGeometry x="2020" y="365" width="120" height="60" as="geometry" />
        </mxCell>
        <mxCell id="xIz4t1A_rdcvLCpUZj0C-441" value="添加标注页" style="rounded=0;whiteSpace=wrap;html=1;" parent="1" vertex="1">
          <mxGeometry x="2140" y="365" width="100" height="60" as="geometry" />
        </mxCell>
        <mxCell id="xIz4t1A_rdcvLCpUZj0C-445" value="删除" style="rounded=0;whiteSpace=wrap;html=1;" parent="1" vertex="1">
          <mxGeometry x="2190" y="1070" width="120" height="50" as="geometry" />
        </mxCell>
        <mxCell id="xIz4t1A_rdcvLCpUZj0C-447" value="标注工具栏" style="rounded=0;whiteSpace=wrap;html=1;" parent="1" vertex="1">
          <mxGeometry x="2290" y="535" width="210" height="35" as="geometry" />
        </mxCell>
        <mxCell id="xIz4t1A_rdcvLCpUZj0C-448" style="edgeStyle=orthogonalEdgeStyle;rounded=0;orthogonalLoop=1;jettySize=auto;html=1;exitX=0.5;exitY=1;exitDx=0;exitDy=0;" parent="1" source="xIz4t1A_rdcvLCpUZj0C-447" target="xIz4t1A_rdcvLCpUZj0C-447" edge="1">
          <mxGeometry relative="1" as="geometry" />
        </mxCell>
        <mxCell id="xIz4t1A_rdcvLCpUZj0C-450" value="" style="shape=trapezoid;perimeter=trapezoidPerimeter;whiteSpace=wrap;html=1;fixedSize=1;" parent="1" vertex="1">
          <mxGeometry x="1870" y="728" width="130" height="102" as="geometry" />
        </mxCell>
        <mxCell id="xIz4t1A_rdcvLCpUZj0C-451" value="" style="endArrow=classic;html=1;rounded=0;" parent="1" source="xIz4t1A_rdcvLCpUZj0C-450" edge="1">
          <mxGeometry width="50" height="50" relative="1" as="geometry">
            <mxPoint x="2040" y="1540" as="sourcePoint" />
            <mxPoint x="2100" y="1330" as="targetPoint" />
          </mxGeometry>
        </mxCell>
        <mxCell id="xIz4t1A_rdcvLCpUZj0C-452" value="" style="whiteSpace=wrap;html=1;aspect=fixed;" parent="1" vertex="1">
          <mxGeometry x="2090" y="1330" width="540" height="540" as="geometry" />
        </mxCell>
        <mxCell id="xIz4t1A_rdcvLCpUZj0C-453" value="geoJSON绘区域" style="text;html=1;strokeColor=none;fillColor=none;align=center;verticalAlign=middle;whiteSpace=wrap;rounded=0;" parent="1" vertex="1">
          <mxGeometry x="2290" y="1400" width="60" height="30" as="geometry" />
        </mxCell>
        <mxCell id="xIz4t1A_rdcvLCpUZj0C-454" value="name属性" style="rounded=0;whiteSpace=wrap;html=1;" parent="1" vertex="1">
          <mxGeometry x="2190" y="1490" width="120" height="60" as="geometry" />
        </mxCell>
        <mxCell id="xIz4t1A_rdcvLCpUZj0C-455" value="types属性" style="rounded=0;whiteSpace=wrap;html=1;" parent="1" vertex="1">
          <mxGeometry x="2190" y="1590" width="120" height="60" as="geometry" />
        </mxCell>
        <mxCell id="xIz4t1A_rdcvLCpUZj0C-456" value="descptions属性" style="rounded=0;whiteSpace=wrap;html=1;" parent="1" vertex="1">
          <mxGeometry x="2190" y="1680" width="120" height="60" as="geometry" />
        </mxCell>
        <mxCell id="xIz4t1A_rdcvLCpUZj0C-457" value="分区/指标" style="rounded=0;whiteSpace=wrap;html=1;" parent="1" vertex="1">
          <mxGeometry x="2350" y="1590" width="120" height="60" as="geometry" />
        </mxCell>
        <mxCell id="xIz4t1A_rdcvLCpUZj0C-458" value="对区域的描述或者结论" style="rounded=0;whiteSpace=wrap;html=1;" parent="1" vertex="1">
          <mxGeometry x="2350" y="1690" width="170" height="60" as="geometry" />
        </mxCell>
        <mxCell id="xIz4t1A_rdcvLCpUZj0C-459" value="" style="endArrow=classic;html=1;rounded=0;exitX=0.5;exitY=1;exitDx=0;exitDy=0;" parent="1" source="xIz4t1A_rdcvLCpUZj0C-466" target="xIz4t1A_rdcvLCpUZj0C-429" edge="1">
          <mxGeometry width="50" height="50" relative="1" as="geometry">
            <mxPoint x="1460" y="930" as="sourcePoint" />
            <mxPoint x="1510" y="880" as="targetPoint" />
          </mxGeometry>
        </mxCell>
        <mxCell id="xIz4t1A_rdcvLCpUZj0C-460" value="关闭" style="rounded=0;whiteSpace=wrap;html=1;" parent="1" vertex="1">
          <mxGeometry x="440" y="1740" width="120" height="60" as="geometry" />
        </mxCell>
        <mxCell id="xIz4t1A_rdcvLCpUZj0C-461" value="关闭" style="rounded=0;whiteSpace=wrap;html=1;" parent="1" vertex="1">
          <mxGeometry x="1290" y="1470" width="120" height="60" as="geometry" />
        </mxCell>
        <mxCell id="xIz4t1A_rdcvLCpUZj0C-463" style="edgeStyle=orthogonalEdgeStyle;rounded=0;orthogonalLoop=1;jettySize=auto;html=1;exitX=1;exitY=0.75;exitDx=0;exitDy=0;entryX=0.5;entryY=1;entryDx=0;entryDy=0;" parent="1" source="xIz4t1A_rdcvLCpUZj0C-418" target="xIz4t1A_rdcvLCpUZj0C-418" edge="1">
          <mxGeometry relative="1" as="geometry" />
        </mxCell>
        <mxCell id="xIz4t1A_rdcvLCpUZj0C-464" value="影像关联数据" style="text;html=1;strokeColor=none;fillColor=none;align=center;verticalAlign=middle;whiteSpace=wrap;rounded=0;" parent="1" vertex="1">
          <mxGeometry x="1090" y="390" width="130" height="30" as="geometry" />
        </mxCell>
        <mxCell id="xIz4t1A_rdcvLCpUZj0C-465" value="编辑" style="rounded=0;whiteSpace=wrap;html=1;" parent="1" vertex="1">
          <mxGeometry x="1240" y="713" width="50" height="37" as="geometry" />
        </mxCell>
        <mxCell id="xIz4t1A_rdcvLCpUZj0C-466" value="编辑" style="rounded=0;whiteSpace=wrap;html=1;" parent="1" vertex="1">
          <mxGeometry x="1200" y="775" width="50" height="37" as="geometry" />
        </mxCell>
        <mxCell id="xIz4t1A_rdcvLCpUZj0C-467" value="" style="whiteSpace=wrap;html=1;aspect=fixed;" parent="1" vertex="1">
          <mxGeometry x="3130" y="390" width="910" height="910" as="geometry" />
        </mxCell>
        <mxCell id="xIz4t1A_rdcvLCpUZj0C-468" value="&lt;h1&gt;写报表时插入影像&lt;br&gt;&lt;br&gt;1.写报表之前需要选着企业或者平台相关信息&lt;/h1&gt;&lt;h1&gt;&lt;br&gt;2.拖入影像组件时 列出平台企业下所有影像 可以更具名称或者期号检索到具体影像插入即可&lt;br&gt;&lt;br&gt;&lt;/h1&gt;&lt;h1&gt;3.如果有标注可以选者对应标注&lt;br&gt;&lt;br&gt;&lt;/h1&gt;&lt;h1&gt;4.如果有结论信息可以选着结论&amp;nbsp;&lt;/h1&gt;" style="text;html=1;strokeColor=none;fillColor=none;spacing=5;spacingTop=-20;whiteSpace=wrap;overflow=hidden;rounded=0;" parent="1" vertex="1">
          <mxGeometry x="3380" y="720" width="660" height="550" as="geometry" />
        </mxCell>
      </root>
    </mxGraphModel>
  </diagram>
</mxfile>
